# xmcd
#
# Track frame offsets:
#	150
#	122182
#	123982
#	140937
#	154465
#	163895
#	174942
#	178277
#	180025
#	181077
#
# Disc length: 3199 seconds
#
# Revision: 2
# Processed by: cddbd v1.5.2PL0 Copyright (c) Steve Scherf et al.
# Submitted via: EZCDAudioConverter 2.3.1.1
#
DISCID=8a0c7d0a
DTITLE=塔立仁波切僧團 - 二十一救度佛母禮讚文
DYEAR=1900
DGENRE=
TTITLE0=未知歌星 - 二十一救度佛母禮讚文 (完整版)
TTITLE1=未知歌星 - 祈請文 (教學版)
TTITLE2=未知歌星 - 二十一救度佛母禮讚文 (慢版)
TTITLE3=未知歌星 - 二十一救度佛母禮讚文(中版) 
TTITLE4=未知歌星 - 二十一救度佛母禮讚文 (快版)
TTITLE5=未知歌星 - 二十一救度佛母禮讚文 (中版) 
TTITLE6=未知歌星 - 簡短禮讚文 (教學版)
TTITLE7=未知歌星 - 綠度母心咒 (教學版)
TTITLE8=未知歌星 - 迴向文 (教學版)
TTITLE9=未知歌星 - 教學版內容反覆 (教學版)
EXTD=
EXTT0=
EXTT1=
EXTT2=
EXTT3=
EXTT4=
EXTT5=
EXTT6=
EXTT7=
EXTT8=
EXTT9=
PLAYORDER=
